<?xml version="1.0" encoding="utf-8"?>
<!-- Generator: Adobe Illustrator 16.0.0, SVG Export Plug-In . SVG Version: 6.00 Build 0)  -->
<!DOCTYPE svg PUBLIC "-//W3C//DTD SVG 1.1//EN" "http://www.w3.org/Graphics/SVG/1.1/DTD/svg11.dtd">
<svg version="1.1" id="Layer_1" xmlns="http://www.w3.org/2000/svg" xmlns:xlink="http://www.w3.org/1999/xlink" x="0px" y="0px"
	 width="576px" height="576px" viewBox="0 0 576 576" enable-background="new 0 0 576 576" xml:space="preserve">
<path d="M144,0C64.471,0,0,64.472,0,144v288c0,16.663,2.84,32.66,8.046,47.547c13.606-80.69,43.989-155.682,87.438-221.264h5.666
	h34.466v18.436c-54.583,64.677-95.17,141.545-117.109,225.935C43.209,546.435,90.148,576,144,576h288c79.529,0,144-64.471,144-144
	V144c0-26.091-6.939-50.561-19.072-71.666c-115.708,3.767-222.79,41.642-311.503,103.923v-11.504h-12h-60.718
	c6.414-6.291,12.977-12.432,19.678-18.419c16.371-0.241,30.579-6.251,42.234-17.905c8.089-8.091,13.46-17.411,16.074-27.827
	C318.063,54.415,395.75,22.19,479.581,8.059C464.686,2.845,448.676,0,432,0H144z M233.425,176.754v8.159V540h-85.809V262.958
	v-16.674h-43.96h-2.505v-69.529h59.677H233.425z M230.325,115.223c-1.281,1.622-2.668,3.199-4.19,4.721
	c-4.605,4.605-9.668,8.093-15.18,10.491c-5.994,2.607-12.52,3.923-19.588,3.923c-13.563,0-25.155-4.801-34.763-14.414
	c-9.613-9.608-14.415-21.198-14.415-34.765s4.802-25.151,14.415-34.765C166.212,40.807,177.804,36,191.367,36
	c13.567,0,25.153,4.807,34.768,14.415c9.606,9.613,14.414,21.198,14.414,34.765C240.549,96.597,237.13,106.608,230.325,115.223z"/>
</svg>
